# xmcd
#
# Track frame offsets:
#	150
#	16330
#	30767
#	46382
#	58637
#	72905
#	86647
#	102557
#	122612
#	140412
#	155977
#	170537
#	185895
#	201455
#
# Disc length: 2885 seconds
#
# Revision: 1
# Processed by: cddbd v1.5.1PL0 Copyright (c) Steve Scherf et al.
# Submitted via: audiograbber 1.83.01
#
DISCID=ca0b430e
DTITLE=Various Artist - SD064
DYEAR=1900
DGENRE=Karaoke Country
TTITLE0=Shania Twain - You've Got A Way
TTITLE1=Steve Wariner - I'm Already Taken
TTITLE2=Dixie Chicks - Ready To Run
TTITLE3=Lee Ann Womack - Now You See Me Now You Don't
TTITLE4=Collin Raye - Start Over Georgia
TTITLE5=George Strait - What Do You Say To That
TTITLE6=John Michael Montgomery - Home To You
TTITLE7=Mary Chapin Carpenter - Almost Here
TTITLE8=Bryan White - You're Still Beautiful To Me
TTITLE9=Gentry Montgomery - Lonely and Gone
TTITLE10=Neal McCoy - Girls Of Summer, The
TTITLE11=Lila McCann - Crush
TTITLE12=George Jones - Choices
TTITLE13=Aaron Tippin - Her
EXTD=
EXTT0=
EXTT1=
EXTT2=
EXTT3=
EXTT4=
EXTT5=
EXTT6=
EXTT7=
EXTT8=
EXTT9=
EXTT10=
EXTT11=
EXTT12=
EXTT13=
PLAYORDER=
